<mxfile host="app.diagrams.net" agent="Mozilla/5.0 (Windows NT 10.0; Win64; x64) AppleWebKit/537.36 (KHTML, like Gecko) Chrome/131.0.0.0 Safari/537.36 OPR/116.0.0.0" version="26.0.16">
  <diagram name="Page-1" id="SEDTsJqef1AWpn6NtEAZ">
    <mxGraphModel dx="1392" dy="793" grid="1" gridSize="10" guides="1" tooltips="1" connect="1" arrows="1" fold="1" page="1" pageScale="1" pageWidth="850" pageHeight="1100" math="0" shadow="0">
      <root>
        <mxCell id="0" />
        <mxCell id="1" parent="0" />
        <mxCell id="JQPYukZpzp29VwCVxxEm-11" value="" style="edgeStyle=orthogonalEdgeStyle;rounded=0;orthogonalLoop=1;jettySize=auto;html=1;" edge="1" parent="1" source="JQPYukZpzp29VwCVxxEm-7" target="JQPYukZpzp29VwCVxxEm-9">
          <mxGeometry relative="1" as="geometry" />
        </mxCell>
        <mxCell id="JQPYukZpzp29VwCVxxEm-7" value="" style="strokeWidth=2;html=1;shape=mxgraph.flowchart.start_1;whiteSpace=wrap;" vertex="1" parent="1">
          <mxGeometry x="353" y="100" width="145" height="100" as="geometry" />
        </mxCell>
        <mxCell id="JQPYukZpzp29VwCVxxEm-8" value="&lt;font style=&quot;font-size: 17px;&quot;&gt;Daily Routine&lt;/font&gt;" style="text;strokeColor=none;align=center;fillColor=none;html=1;verticalAlign=middle;whiteSpace=wrap;rounded=0;fontSize=25;fontColor=#0000FF;" vertex="1" parent="1">
          <mxGeometry x="325.5" y="95" width="200" height="110" as="geometry" />
        </mxCell>
        <mxCell id="JQPYukZpzp29VwCVxxEm-14" value="" style="edgeStyle=orthogonalEdgeStyle;rounded=0;orthogonalLoop=1;jettySize=auto;html=1;" edge="1" parent="1" source="JQPYukZpzp29VwCVxxEm-9" target="JQPYukZpzp29VwCVxxEm-13">
          <mxGeometry relative="1" as="geometry" />
        </mxCell>
        <mxCell id="JQPYukZpzp29VwCVxxEm-9" value="" style="rounded=1;whiteSpace=wrap;html=1;absoluteArcSize=1;arcSize=14;strokeWidth=2;fillColor=#fff2cc;strokeColor=#d6b656;" vertex="1" parent="1">
          <mxGeometry x="350" y="230" width="150" height="100" as="geometry" />
        </mxCell>
        <mxCell id="JQPYukZpzp29VwCVxxEm-12" value="check my phone for the time and get out of bed + freshen up" style="text;strokeColor=none;align=center;fillColor=none;html=1;verticalAlign=middle;whiteSpace=wrap;rounded=0;fontSize=15;" vertex="1" parent="1">
          <mxGeometry x="361.25" y="252.5" width="128.5" height="55" as="geometry" />
        </mxCell>
        <mxCell id="JQPYukZpzp29VwCVxxEm-13" value="" style="rounded=1;whiteSpace=wrap;html=1;absoluteArcSize=1;arcSize=14;strokeWidth=2;fillColor=#fff2cc;strokeColor=#d6b656;" vertex="1" parent="1">
          <mxGeometry x="220" y="330" width="79.5" height="50" as="geometry" />
        </mxCell>
        <mxCell id="JQPYukZpzp29VwCVxxEm-28" value="" style="edgeStyle=orthogonalEdgeStyle;rounded=0;orthogonalLoop=1;jettySize=auto;html=1;" edge="1" parent="1" source="JQPYukZpzp29VwCVxxEm-15" target="JQPYukZpzp29VwCVxxEm-27">
          <mxGeometry relative="1" as="geometry" />
        </mxCell>
        <mxCell id="JQPYukZpzp29VwCVxxEm-15" value="go to the kitchen" style="text;strokeColor=none;align=center;fillColor=none;html=1;verticalAlign=middle;whiteSpace=wrap;rounded=0;fontSize=15;" vertex="1" parent="1">
          <mxGeometry x="210.25" y="330" width="99" height="47.5" as="geometry" />
        </mxCell>
        <mxCell id="JQPYukZpzp29VwCVxxEm-31" value="" style="edgeStyle=orthogonalEdgeStyle;rounded=0;orthogonalLoop=1;jettySize=auto;html=1;" edge="1" parent="1" source="JQPYukZpzp29VwCVxxEm-27" target="JQPYukZpzp29VwCVxxEm-30">
          <mxGeometry relative="1" as="geometry" />
        </mxCell>
        <mxCell id="JQPYukZpzp29VwCVxxEm-34" value="" style="edgeStyle=orthogonalEdgeStyle;rounded=0;orthogonalLoop=1;jettySize=auto;html=1;" edge="1" parent="1" source="JQPYukZpzp29VwCVxxEm-27" target="JQPYukZpzp29VwCVxxEm-33">
          <mxGeometry relative="1" as="geometry" />
        </mxCell>
        <mxCell id="JQPYukZpzp29VwCVxxEm-27" value="" style="rhombus;whiteSpace=wrap;html=1;fillColor=#d5e8d4;strokeColor=#82b366;gradientColor=#97d077;" vertex="1" parent="1">
          <mxGeometry x="200" y="430" width="120" height="120" as="geometry" />
        </mxCell>
        <mxCell id="JQPYukZpzp29VwCVxxEm-29" value="&lt;font style=&quot;font-size: 14px;&quot;&gt;are there dishes in the sink?&lt;/font&gt;" style="text;strokeColor=none;align=center;fillColor=none;html=1;verticalAlign=middle;whiteSpace=wrap;rounded=0;" vertex="1" parent="1">
          <mxGeometry x="230" y="475" width="60" height="30" as="geometry" />
        </mxCell>
        <mxCell id="JQPYukZpzp29VwCVxxEm-30" value="" style="rounded=1;whiteSpace=wrap;html=1;fillColor=#dae8fc;strokeColor=#6c8ebf;" vertex="1" parent="1">
          <mxGeometry x="200" y="660" width="120" height="60" as="geometry" />
        </mxCell>
        <mxCell id="JQPYukZpzp29VwCVxxEm-32" value="&lt;font style=&quot;font-size: 16px;&quot;&gt;yes&lt;/font&gt;&lt;div&gt;&lt;br&gt;&lt;/div&gt;" style="text;strokeColor=none;align=center;fillColor=none;html=1;verticalAlign=middle;whiteSpace=wrap;rounded=0;" vertex="1" parent="1">
          <mxGeometry x="249.25" y="600" width="60" height="40" as="geometry" />
        </mxCell>
        <mxCell id="JQPYukZpzp29VwCVxxEm-33" value="" style="rounded=1;whiteSpace=wrap;html=1;fillColor=#f8cecc;strokeColor=#b85450;" vertex="1" parent="1">
          <mxGeometry x="365.5" y="460" width="120" height="60" as="geometry" />
        </mxCell>
        <mxCell id="JQPYukZpzp29VwCVxxEm-35" value="&lt;font style=&quot;font-size: 16px;&quot;&gt;no&lt;/font&gt;" style="text;strokeColor=none;align=center;fillColor=none;html=1;verticalAlign=middle;whiteSpace=wrap;rounded=0;" vertex="1" parent="1">
          <mxGeometry x="309.25" y="460" width="60" height="30" as="geometry" />
        </mxCell>
        <mxCell id="JQPYukZpzp29VwCVxxEm-36" value="have breakfast immediately and then go to college" style="text;strokeColor=none;align=center;fillColor=none;html=1;verticalAlign=middle;whiteSpace=wrap;rounded=0;" vertex="1" parent="1">
          <mxGeometry x="375.5" y="475" width="100" height="30" as="geometry" />
        </mxCell>
        <mxCell id="JQPYukZpzp29VwCVxxEm-44" value="" style="edgeStyle=orthogonalEdgeStyle;rounded=0;orthogonalLoop=1;jettySize=auto;html=1;" edge="1" parent="1" source="JQPYukZpzp29VwCVxxEm-37" target="JQPYukZpzp29VwCVxxEm-43">
          <mxGeometry relative="1" as="geometry" />
        </mxCell>
        <mxCell id="JQPYukZpzp29VwCVxxEm-37" value="i wash them first, and then have dinner" style="text;strokeColor=none;align=center;fillColor=none;html=1;verticalAlign=middle;whiteSpace=wrap;rounded=0;" vertex="1" parent="1">
          <mxGeometry x="215" y="675" width="90" height="30" as="geometry" />
        </mxCell>
        <mxCell id="JQPYukZpzp29VwCVxxEm-47" value="" style="edgeStyle=orthogonalEdgeStyle;rounded=0;orthogonalLoop=1;jettySize=auto;html=1;" edge="1" parent="1" source="JQPYukZpzp29VwCVxxEm-43" target="JQPYukZpzp29VwCVxxEm-46">
          <mxGeometry relative="1" as="geometry" />
        </mxCell>
        <mxCell id="JQPYukZpzp29VwCVxxEm-43" value="" style="rounded=1;whiteSpace=wrap;html=1;fillColor=#fff2cc;strokeColor=#d6b656;" vertex="1" parent="1">
          <mxGeometry x="370" y="660" width="120" height="60" as="geometry" />
        </mxCell>
        <mxCell id="JQPYukZpzp29VwCVxxEm-45" value="go to school, and after coming back i complete my homework" style="text;strokeColor=none;align=center;fillColor=none;html=1;verticalAlign=middle;whiteSpace=wrap;rounded=0;" vertex="1" parent="1">
          <mxGeometry x="384" y="635" width="92" height="110" as="geometry" />
        </mxCell>
        <mxCell id="JQPYukZpzp29VwCVxxEm-52" value="" style="edgeStyle=orthogonalEdgeStyle;rounded=0;orthogonalLoop=1;jettySize=auto;html=1;" edge="1" parent="1" source="JQPYukZpzp29VwCVxxEm-46" target="JQPYukZpzp29VwCVxxEm-51">
          <mxGeometry relative="1" as="geometry" />
        </mxCell>
        <mxCell id="JQPYukZpzp29VwCVxxEm-56" value="" style="edgeStyle=orthogonalEdgeStyle;rounded=0;orthogonalLoop=1;jettySize=auto;html=1;" edge="1" parent="1" source="JQPYukZpzp29VwCVxxEm-46" target="JQPYukZpzp29VwCVxxEm-55">
          <mxGeometry relative="1" as="geometry" />
        </mxCell>
        <mxCell id="JQPYukZpzp29VwCVxxEm-46" value="" style="rhombus;whiteSpace=wrap;html=1;fillColor=#d5e8d4;strokeColor=#82b366;rounded=1;gradientColor=#97d077;" vertex="1" parent="1">
          <mxGeometry x="530" y="630.93" width="120" height="118.13" as="geometry" />
        </mxCell>
        <mxCell id="JQPYukZpzp29VwCVxxEm-48" value="do i have my codingal class today?" style="text;strokeColor=none;align=center;fillColor=none;html=1;verticalAlign=middle;whiteSpace=wrap;rounded=0;" vertex="1" parent="1">
          <mxGeometry x="548.75" y="627.49" width="82.5" height="125.01" as="geometry" />
        </mxCell>
        <mxCell id="JQPYukZpzp29VwCVxxEm-51" value="" style="rounded=1;whiteSpace=wrap;html=1;fillColor=#cce5ff;strokeColor=#36393d;" vertex="1" parent="1">
          <mxGeometry x="410" y="820.0049999999999" width="120" height="60" as="geometry" />
        </mxCell>
        <mxCell id="JQPYukZpzp29VwCVxxEm-53" value="yes" style="text;strokeColor=none;align=center;fillColor=none;html=1;verticalAlign=middle;whiteSpace=wrap;rounded=0;fontSize=16;" vertex="1" parent="1">
          <mxGeometry x="525.5" y="740" width="60" height="30" as="geometry" />
        </mxCell>
        <mxCell id="JQPYukZpzp29VwCVxxEm-61" value="" style="edgeStyle=orthogonalEdgeStyle;rounded=0;orthogonalLoop=1;jettySize=auto;html=1;" edge="1" parent="1" source="JQPYukZpzp29VwCVxxEm-54" target="JQPYukZpzp29VwCVxxEm-60">
          <mxGeometry relative="1" as="geometry" />
        </mxCell>
        <mxCell id="JQPYukZpzp29VwCVxxEm-54" value="&lt;font style=&quot;font-size: 14px;&quot;&gt;i attend it first and then play games&lt;/font&gt;" style="text;strokeColor=none;align=center;fillColor=none;html=1;verticalAlign=middle;whiteSpace=wrap;rounded=0;" vertex="1" parent="1">
          <mxGeometry x="427.5" y="835" width="85" height="30" as="geometry" />
        </mxCell>
        <mxCell id="JQPYukZpzp29VwCVxxEm-55" value="" style="rounded=1;whiteSpace=wrap;html=1;fillColor=#ffcccc;strokeColor=#36393d;" vertex="1" parent="1">
          <mxGeometry x="720" y="659.99" width="130" height="60" as="geometry" />
        </mxCell>
        <mxCell id="JQPYukZpzp29VwCVxxEm-57" value="&lt;font style=&quot;font-size: 16px;&quot;&gt;no&lt;/font&gt;" style="text;strokeColor=none;align=center;fillColor=none;html=1;verticalAlign=middle;whiteSpace=wrap;rounded=0;" vertex="1" parent="1">
          <mxGeometry x="650" y="660" width="60" height="30" as="geometry" />
        </mxCell>
        <mxCell id="JQPYukZpzp29VwCVxxEm-58" value="&lt;font style=&quot;font-size: 15px;&quot;&gt;i immediately go to play games&amp;nbsp;&lt;/font&gt;" style="text;strokeColor=none;align=center;fillColor=none;html=1;verticalAlign=middle;whiteSpace=wrap;rounded=0;" vertex="1" parent="1">
          <mxGeometry x="725" y="675" width="120" height="30" as="geometry" />
        </mxCell>
        <mxCell id="JQPYukZpzp29VwCVxxEm-60" value="" style="ellipse;whiteSpace=wrap;html=1;" vertex="1" parent="1">
          <mxGeometry x="385" y="940" width="170" height="110" as="geometry" />
        </mxCell>
        <mxCell id="JQPYukZpzp29VwCVxxEm-62" value="&lt;font style=&quot;font-size: 20px;&quot;&gt;go to sleep&lt;/font&gt;" style="text;strokeColor=none;align=center;fillColor=none;html=1;verticalAlign=middle;whiteSpace=wrap;rounded=0;fontColor=#FF0000;" vertex="1" parent="1">
          <mxGeometry x="405" y="955" width="130" height="80" as="geometry" />
        </mxCell>
      </root>
    </mxGraphModel>
  </diagram>
</mxfile>
